<mxfile host="Electron" agent="Mozilla/5.0 (Windows NT 10.0; Win64; x64) AppleWebKit/537.36 (KHTML, like Gecko) draw.io/24.7.17 Chrome/128.0.6613.36 Electron/32.0.1 Safari/537.36" version="24.7.17">
  <diagram name="Page-1" id="bJShTzK8KIvhy2Fz6gtN">
    <mxGraphModel dx="819" dy="505" grid="1" gridSize="10" guides="1" tooltips="1" connect="1" arrows="1" fold="1" page="1" pageScale="1" pageWidth="827" pageHeight="1169" math="1" shadow="0">
      <root>
        <mxCell id="0" />
        <mxCell id="1" parent="0" />
        <mxCell id="pSLvossauxbjg_3-waZU-50" value="&lt;b style=&quot;font-size: 12px;&quot;&gt;\(\alpha\)&lt;/b&gt;" style="text;html=1;align=center;verticalAlign=middle;whiteSpace=wrap;rounded=0;fontSize=12;spacingLeft=0;spacing=2;" parent="1" vertex="1">
          <mxGeometry x="700" y="480" width="60" height="30" as="geometry" />
        </mxCell>
        <mxCell id="pSLvossauxbjg_3-waZU-3" value="" style="ellipse;whiteSpace=wrap;html=1;aspect=fixed;fontSize=12;spacingLeft=0;spacing=2;" parent="1" vertex="1">
          <mxGeometry x="150" y="320" width="280" height="280" as="geometry" />
        </mxCell>
        <mxCell id="pSLvossauxbjg_3-waZU-4" value="" style="rounded=0;whiteSpace=wrap;html=1;rotation=90;dashed=1;dashPattern=8 8;opacity=50;fontSize=12;spacingLeft=0;spacing=2;" parent="1" vertex="1">
          <mxGeometry x="210" y="410" width="160" height="100" as="geometry" />
        </mxCell>
        <mxCell id="pSLvossauxbjg_3-waZU-1" value="" style="rounded=0;whiteSpace=wrap;html=1;rotation=120;opacity=50;fontSize=12;spacingLeft=0;spacing=2;" parent="1" vertex="1">
          <mxGeometry x="210" y="410" width="160" height="100" as="geometry" />
        </mxCell>
        <mxCell id="pSLvossauxbjg_3-waZU-6" value="" style="endArrow=none;html=1;rounded=0;fontSize=12;spacingLeft=0;spacing=2;" parent="1" edge="1">
          <mxGeometry width="50" height="50" relative="1" as="geometry">
            <mxPoint x="289.8" y="460" as="sourcePoint" />
            <mxPoint x="290" y="320" as="targetPoint" />
          </mxGeometry>
        </mxCell>
        <mxCell id="pSLvossauxbjg_3-waZU-7" value="" style="endArrow=none;html=1;rounded=0;entryX=0.763;entryY=0.073;entryDx=0;entryDy=0;entryPerimeter=0;fontSize=12;spacingLeft=0;spacing=2;" parent="1" target="pSLvossauxbjg_3-waZU-3" edge="1">
          <mxGeometry width="50" height="50" relative="1" as="geometry">
            <mxPoint x="290" y="460" as="sourcePoint" />
            <mxPoint x="380" y="310" as="targetPoint" />
          </mxGeometry>
        </mxCell>
        <mxCell id="pSLvossauxbjg_3-waZU-8" value="" style="endArrow=none;html=1;rounded=0;curved=1;fontSize=12;spacingLeft=0;spacing=2;" parent="1" edge="1">
          <mxGeometry width="50" height="50" relative="1" as="geometry">
            <mxPoint x="290" y="400" as="sourcePoint" />
            <mxPoint x="320" y="411" as="targetPoint" />
            <Array as="points">
              <mxPoint x="310" y="390" />
            </Array>
          </mxGeometry>
        </mxCell>
        <mxCell id="pSLvossauxbjg_3-waZU-10" value="&lt;b style=&quot;font-size: 12px;&quot;&gt;\(\alpha\)&lt;/b&gt;" style="text;html=1;align=center;verticalAlign=middle;whiteSpace=wrap;rounded=0;fontSize=12;spacingLeft=0;spacing=2;" parent="1" vertex="1">
          <mxGeometry x="280" y="370" width="60" height="30" as="geometry" />
        </mxCell>
        <mxCell id="pSLvossauxbjg_3-waZU-11" value="" style="endArrow=block;html=1;rounded=0;endFill=1;fontSize=12;spacingLeft=0;spacing=2;" parent="1" edge="1">
          <mxGeometry width="50" height="50" relative="1" as="geometry">
            <mxPoint x="150" y="600" as="sourcePoint" />
            <mxPoint x="430" y="600" as="targetPoint" />
          </mxGeometry>
        </mxCell>
        <mxCell id="pSLvossauxbjg_3-waZU-12" value="" style="endArrow=block;html=1;rounded=0;endFill=1;fontSize=12;spacingLeft=0;spacing=2;" parent="1" edge="1">
          <mxGeometry width="50" height="50" relative="1" as="geometry">
            <mxPoint x="150" y="600" as="sourcePoint" />
            <mxPoint x="150" y="320" as="targetPoint" />
          </mxGeometry>
        </mxCell>
        <mxCell id="pSLvossauxbjg_3-waZU-14" value="&lt;b style=&quot;font-size: 12px;&quot;&gt;\(y\)&lt;/b&gt;" style="text;html=1;align=center;verticalAlign=middle;whiteSpace=wrap;rounded=0;fontSize=12;spacingLeft=0;spacing=2;" parent="1" vertex="1">
          <mxGeometry x="100" y="320" width="60" height="30" as="geometry" />
        </mxCell>
        <mxCell id="pSLvossauxbjg_3-waZU-15" value="&lt;b style=&quot;font-size: 12px;&quot;&gt;\(y\)&lt;/b&gt;" style="text;html=1;align=center;verticalAlign=middle;whiteSpace=wrap;rounded=0;fontSize=12;spacingLeft=0;spacing=2;" parent="1" vertex="1">
          <mxGeometry x="100" y="320" width="60" height="30" as="geometry" />
        </mxCell>
        <mxCell id="pSLvossauxbjg_3-waZU-16" value="&lt;b style=&quot;font-size: 12px;&quot;&gt;\(x\)&lt;/b&gt;" style="text;html=1;align=center;verticalAlign=middle;whiteSpace=wrap;rounded=0;fontSize=12;spacingLeft=0;spacing=2;" parent="1" vertex="1">
          <mxGeometry x="384" y="600" width="60" height="30" as="geometry" />
        </mxCell>
        <mxCell id="pSLvossauxbjg_3-waZU-24" value="" style="endArrow=block;html=1;rounded=0;endFill=1;fontSize=12;spacingLeft=0;spacing=2;" parent="1" edge="1">
          <mxGeometry width="50" height="50" relative="1" as="geometry">
            <mxPoint x="480" y="600" as="sourcePoint" />
            <mxPoint x="760" y="600" as="targetPoint" />
          </mxGeometry>
        </mxCell>
        <mxCell id="pSLvossauxbjg_3-waZU-25" value="" style="endArrow=block;html=1;rounded=0;endFill=1;fontSize=12;spacingLeft=0;spacing=2;" parent="1" edge="1">
          <mxGeometry width="50" height="50" relative="1" as="geometry">
            <mxPoint x="480" y="600" as="sourcePoint" />
            <mxPoint x="480" y="320" as="targetPoint" />
          </mxGeometry>
        </mxCell>
        <mxCell id="pSLvossauxbjg_3-waZU-26" value="&lt;b style=&quot;font-size: 12px;&quot;&gt;\(z\)&lt;/b&gt;" style="text;html=1;align=center;verticalAlign=middle;whiteSpace=wrap;rounded=0;fontSize=12;spacingLeft=0;spacing=2;" parent="1" vertex="1">
          <mxGeometry x="430" y="320" width="60" height="30" as="geometry" />
        </mxCell>
        <mxCell id="pSLvossauxbjg_3-waZU-28" value="&lt;b style=&quot;font-size: 12px;&quot;&gt;\(y\)&lt;/b&gt;" style="text;html=1;align=center;verticalAlign=middle;whiteSpace=wrap;rounded=0;fontSize=12;spacingLeft=0;spacing=2;" parent="1" vertex="1">
          <mxGeometry x="714" y="600" width="60" height="30" as="geometry" />
        </mxCell>
        <mxCell id="pSLvossauxbjg_3-waZU-29" value="" style="rounded=0;whiteSpace=wrap;html=1;rotation=-180;dashed=1;strokeColor=#808080;fontSize=12;spacingLeft=0;spacing=2;" parent="1" vertex="1">
          <mxGeometry x="550" y="498" width="140" height="44" as="geometry" />
        </mxCell>
        <mxCell id="pSLvossauxbjg_3-waZU-34" value="" style="rounded=0;whiteSpace=wrap;html=1;rotation=90;opacity=50;dashed=1;fontSize=12;spacingLeft=0;spacing=2;" parent="1" vertex="1">
          <mxGeometry x="330" y="506" width="30" height="10" as="geometry" />
        </mxCell>
        <mxCell id="pSLvossauxbjg_3-waZU-35" value="" style="rounded=0;whiteSpace=wrap;html=1;rotation=90;opacity=50;dashed=1;fontSize=12;spacingLeft=0;spacing=2;" parent="1" vertex="1">
          <mxGeometry x="220" y="506" width="30" height="10" as="geometry" />
        </mxCell>
        <mxCell id="pSLvossauxbjg_3-waZU-36" value="" style="rounded=0;whiteSpace=wrap;html=1;rotation=90;opacity=50;dashed=1;fontSize=12;spacingLeft=0;spacing=2;" parent="1" vertex="1">
          <mxGeometry x="220" y="410" width="30" height="10" as="geometry" />
        </mxCell>
        <mxCell id="pSLvossauxbjg_3-waZU-38" value="" style="rounded=0;whiteSpace=wrap;html=1;rotation=90;opacity=50;dashed=1;fontSize=12;spacingLeft=0;spacing=2;" parent="1" vertex="1">
          <mxGeometry x="330" y="410" width="30" height="10" as="geometry" />
        </mxCell>
        <mxCell id="pSLvossauxbjg_3-waZU-39" value="" style="rounded=0;whiteSpace=wrap;html=1;rotation=120;opacity=50;fontSize=12;spacingLeft=0;spacing=2;" parent="1" vertex="1">
          <mxGeometry x="346" y="442" width="30" height="10" as="geometry" />
        </mxCell>
        <mxCell id="pSLvossauxbjg_3-waZU-40" value="" style="rounded=0;whiteSpace=wrap;html=1;rotation=120;opacity=50;fontSize=12;spacingLeft=0;spacing=2;" parent="1" vertex="1">
          <mxGeometry x="249" y="390" width="30" height="10" as="geometry" />
        </mxCell>
        <mxCell id="pSLvossauxbjg_3-waZU-41" value="" style="rounded=0;whiteSpace=wrap;html=1;rotation=120;opacity=50;fontSize=12;spacingLeft=0;spacing=2;" parent="1" vertex="1">
          <mxGeometry x="297" y="527" width="30" height="10" as="geometry" />
        </mxCell>
        <mxCell id="pSLvossauxbjg_3-waZU-42" value="" style="rounded=0;whiteSpace=wrap;html=1;rotation=120;opacity=50;fontSize=12;spacingLeft=0;spacing=2;" parent="1" vertex="1">
          <mxGeometry x="201" y="473" width="30" height="10" as="geometry" />
        </mxCell>
        <mxCell id="pSLvossauxbjg_3-waZU-45" value="" style="ellipse;whiteSpace=wrap;html=1;aspect=fixed;opacity=50;fontSize=12;spacingLeft=0;spacing=2;" parent="1" vertex="1">
          <mxGeometry x="560" y="506" width="30" height="30" as="geometry" />
        </mxCell>
        <mxCell id="pSLvossauxbjg_3-waZU-46" value="" style="ellipse;whiteSpace=wrap;html=1;aspect=fixed;opacity=50;fontSize=12;spacingLeft=0;spacing=2;" parent="1" vertex="1">
          <mxGeometry x="650" y="506" width="30" height="30" as="geometry" />
        </mxCell>
        <mxCell id="pSLvossauxbjg_3-waZU-47" value="" style="rounded=0;whiteSpace=wrap;html=1;rotation=340;strokeColor=#808080;fontSize=12;spacingLeft=0;spacing=2;" parent="1" vertex="1">
          <mxGeometry x="551.19" y="501.22" width="139.11" height="40.25" as="geometry" />
        </mxCell>
        <mxCell id="pSLvossauxbjg_3-waZU-51" value="" style="endArrow=none;html=1;rounded=0;curved=1;fontSize=12;spacingLeft=0;spacing=2;" parent="1" edge="1">
          <mxGeometry width="50" height="50" relative="1" as="geometry">
            <mxPoint x="720" y="520" as="sourcePoint" />
            <mxPoint x="708" y="486" as="targetPoint" />
            <Array as="points">
              <mxPoint x="728" y="498" />
            </Array>
          </mxGeometry>
        </mxCell>
        <mxCell id="pSLvossauxbjg_3-waZU-57" value="" style="rounded=0;whiteSpace=wrap;html=1;rotation=60;opacity=50;fontSize=12;spacingLeft=0;spacing=2;" parent="1" vertex="1">
          <mxGeometry x="635" y="574.56" width="41.87" height="10" as="geometry" />
        </mxCell>
        <mxCell id="pSLvossauxbjg_3-waZU-58" value="" style="rounded=0;whiteSpace=wrap;html=1;rotation=30;opacity=50;fontSize=12;spacingLeft=0;spacing=2;" parent="1" vertex="1">
          <mxGeometry x="546" y="580" width="40.87" height="10" as="geometry" />
        </mxCell>
        <mxCell id="pSLvossauxbjg_3-waZU-59" value="" style="rounded=0;whiteSpace=wrap;html=1;rotation=-225;opacity=50;fontSize=12;spacingLeft=0;spacing=2;" parent="1" vertex="1">
          <mxGeometry x="538" y="552" width="40.87" height="10" as="geometry" />
        </mxCell>
        <mxCell id="pSLvossauxbjg_3-waZU-53" value="" style="ellipse;whiteSpace=wrap;html=1;aspect=fixed;rotation=340;strokeColor=#808080;fontSize=12;spacingLeft=0;spacing=2;" parent="1" vertex="1">
          <mxGeometry x="533" y="561" width="21" height="21" as="geometry" />
        </mxCell>
        <mxCell id="pSLvossauxbjg_3-waZU-54" value="" style="rounded=0;whiteSpace=wrap;html=1;rotation=-65;opacity=50;fontSize=12;spacingLeft=0;spacing=2;" parent="1" vertex="1">
          <mxGeometry x="633" y="530" width="40.87" height="10" as="geometry" />
        </mxCell>
        <mxCell id="pSLvossauxbjg_3-waZU-49" value="" style="ellipse;whiteSpace=wrap;html=1;aspect=fixed;rotation=340;strokeColor=#808080;fontSize=12;spacingLeft=0;spacing=2;" parent="1" vertex="1">
          <mxGeometry x="652" y="489" width="30" height="30" as="geometry" />
        </mxCell>
        <mxCell id="pSLvossauxbjg_3-waZU-55" value="" style="ellipse;whiteSpace=wrap;html=1;aspect=fixed;rotation=340;strokeColor=#808080;fontSize=12;spacingLeft=0;spacing=2;" parent="1" vertex="1">
          <mxGeometry x="633" y="547" width="21" height="21" as="geometry" />
        </mxCell>
        <mxCell id="pSLvossauxbjg_3-waZU-30" value="" style="endArrow=none;html=1;rounded=0;fontSize=12;spacingLeft=0;spacing=2;" parent="1" edge="1">
          <mxGeometry width="50" height="50" relative="1" as="geometry">
            <mxPoint x="620" y="520.8299999999999" as="sourcePoint" />
            <mxPoint x="760" y="520.8299999999999" as="targetPoint" />
          </mxGeometry>
        </mxCell>
        <mxCell id="pSLvossauxbjg_3-waZU-31" value="" style="endArrow=none;html=1;rounded=0;fontSize=12;spacingLeft=0;spacing=2;" parent="1" edge="1">
          <mxGeometry width="50" height="50" relative="1" as="geometry">
            <mxPoint x="620" y="521" as="sourcePoint" />
            <mxPoint x="760" y="466" as="targetPoint" />
          </mxGeometry>
        </mxCell>
        <mxCell id="pSLvossauxbjg_3-waZU-48" value="" style="ellipse;whiteSpace=wrap;html=1;aspect=fixed;rotation=340;strokeColor=#808080;fontSize=12;spacingLeft=0;spacing=2;" parent="1" vertex="1">
          <mxGeometry x="564" y="521" width="30" height="30" as="geometry" />
        </mxCell>
      </root>
    </mxGraphModel>
  </diagram>
</mxfile>
